<svg xmlns="http://www.w3.org/2000/svg" width="1200" height="630" viewBox="0 0 1200 630" role="img" aria-labelledby="title desc">
  <title id="title">Puzzlepia</title>
  <desc id="desc">Puzzlepia social sharing image with the text Your Daily Puzzle World.</desc>
  <defs>
    <linearGradient id="bg" x1="0" y1="0" x2="1" y2="1">
      <stop offset="0" stop-color="#fff7fe"/>
      <stop offset="0.48" stop-color="#f7fbff"/>
      <stop offset="1" stop-color="#fff7df"/>
    </linearGradient>
    <linearGradient id="brand" x1="0" y1="0" x2="1" y2="1">
      <stop offset="0" stop-color="#6f45d8"/>
      <stop offset="1" stop-color="#ff5fa8"/>
    </linearGradient>
    <filter id="shadow" x="-20%" y="-20%" width="140%" height="140%">
      <feDropShadow dx="0" dy="18" stdDeviation="22" flood-color="#573e8c" flood-opacity="0.18"/>
    </filter>
  </defs>

  <rect width="1200" height="630" fill="url(#bg)"/>
  <circle cx="100" cy="78" r="170" fill="#ffc857" opacity="0.22"/>
  <circle cx="1115" cy="74" r="210" fill="#2dd4bf" opacity="0.18"/>
  <circle cx="1060" cy="548" r="180" fill="#ff5fa8" opacity="0.12"/>

  <g opacity="0.88">
    <rect x="840" y="95" width="92" height="92" rx="22" fill="#2dd4bf" filter="url(#shadow)"/>
    <rect x="955" y="126" width="92" height="92" rx="22" fill="#ff5fa8" filter="url(#shadow)"/>
    <rect x="820" y="232" width="92" height="92" rx="22" fill="#ffc857" filter="url(#shadow)"/>
    <rect x="938" y="270" width="92" height="92" rx="22" fill="#6f45d8" filter="url(#shadow)"/>
    <rect x="1058" y="228" width="92" height="92" rx="22" fill="#ffffff" stroke="#6f45d8" stroke-opacity="0.18" stroke-width="3" filter="url(#shadow)"/>
    <circle cx="874" cy="428" r="47" fill="none" stroke="#ff5fa8" stroke-width="18"/>
    <circle cx="990" cy="462" r="47" fill="none" stroke="#2dd4bf" stroke-width="18"/>
    <path d="M1096 395l15 34 37 4-28 24 8 36-32-19-32 19 8-36-28-24 37-4z" fill="#ffc857"/>
  </g>

  <g transform="translate(78 84)">
    <rect width="170" height="170" rx="38" fill="url(#brand)" filter="url(#shadow)"/>
    <path d="M50 43h56c31 0 52 20 52 48 0 29-21 49-53 49H83v36H50zm33 29v39h22c13 0 21-8 21-20 0-12-8-19-21-19z" fill="#ffffff"/>
    <circle cx="139" cy="36" r="18" fill="#ffc857"/>
    <circle cx="35" cy="137" r="16" fill="#2dd4bf"/>
  </g>

  <g fill="#241c35">
    <text x="78" y="345" font-family="Arial, Helvetica, sans-serif" font-size="104" font-weight="900" letter-spacing="0">Puzzlepia</text>
    <text x="84" y="420" font-family="Arial, Helvetica, sans-serif" font-size="46" font-weight="800" fill="#6f45d8">Your Daily Puzzle World</text>
    <text x="86" y="490" font-family="Arial, Helvetica, sans-serif" font-size="32" font-weight="700" fill="#62576f">Play fresh puzzles. Discover clever games.</text>
  </g>

  <g transform="translate(86 534)">
    <rect width="156" height="48" rx="24" fill="#ffffff" stroke="#6f45d8" stroke-opacity="0.16"/>
    <circle cx="28" cy="24" r="11" fill="#ff5fa8"/>
    <circle cx="62" cy="24" r="11" fill="#2dd4bf"/>
    <circle cx="96" cy="24" r="11" fill="#ffc857"/>
    <circle cx="130" cy="24" r="11" fill="#6f45d8"/>
  </g>
</svg>
